<svg xmlns="http://www.w3.org/2000/svg" viewBox="0 0 560 200" width="560" height="200">
  <defs>
    <style>
      .pulpo-word { font-family: 'Fraunces', 'Georgia', serif; font-weight: 700; font-style: italic; }
      .pulpo-tag { font-family: 'Work Sans', 'Helvetica', sans-serif; font-weight: 600; letter-spacing: 8px; }
    </style>
  </defs>
  <path d="M18 60
           C 8 90, 6 130, 22 158
           C 30 172, 44 178, 52 168
           C 44 158, 40 140, 46 126
           C 30 132, 20 120, 24 104
           C 32 110, 40 104, 38 92
           C 26 96, 18 84, 22 68
           C 30 74, 36 66, 34 56
           Z"
        fill="#C33B2E" opacity="0.92"/>
  <path d="M22 68 C 30 74, 36 66, 34 56" stroke="#8f2a20" stroke-width="1.5" fill="none" opacity="0.5"/>
  <path d="M24 104 C 32 110, 40 104, 38 92" stroke="#8f2a20" stroke-width="1.5" fill="none" opacity="0.5"/>
  <path d="M22 158 C 30 172, 44 178, 52 168" stroke="#8f2a20" stroke-width="1.5" fill="none" opacity="0.5"/>
  <text x="90" y="118" class="pulpo-word" font-size="92" fill="#1E3A5C">PULPO</text>
  <text x="94" y="160" class="pulpo-tag" font-size="20" fill="#1E3A5C">FISH &amp; SUSHI</text>
</svg>
